<svg version="1.1" viewBox="0 0 241 38" xmlns="http://www.w3.org/2000/svg">
 <g transform="translate(-16.215 -125.04)">
  <rect id="crosst" transform="rotate(90)" x="125.1" y="-142.38" width="8.798" height="60.639" ry="1.0452"/>
  <rect x="81.693" y="139.55" width="14.968" height="23.352" ry=".40251"/>
  <rect x="104.57" y="139.55" width="14.968" height="23.352" ry=".40251"/>
  <rect x="127.45" y="139.56" width="14.968" height="23.352" ry=".40251"/>
  <g transform="matrix(3.8118 0 0 3.8118 -268.01 -184.56)">
   <rect x="109.75" y="81.239" width="3.9057" height="9.9057" ry=".17074"/>
   <rect x="115.36" y="81.239" width="3.9057" height="9.9057" ry=".17074"/>
   <rect x="120.94" y="81.238" width="3.9057" height="9.9057" ry=".17074"/>
   <rect transform="rotate(90)" x="81.227" y="-124.86" width="2.325" height="10.513" ry=".18121"/>
  </g>
  <g transform="matrix(3.8118 0 0 3.8118 -254.79 -187.75)">
   <rect x="71.097" y="82.077" width="3.9057" height="9.9057" ry=".17074"/>
   <rect x="76.705" y="82.076" width="3.9057" height="9.9057" ry=".17074"/>
   <rect x="82.283" y="82.075" width="3.9057" height="9.9057" ry=".17074"/>
   <rect transform="rotate(90)" x="82.064" y="-86.2" width="2.325" height="10.513" ry=".18121"/>
  </g>
  <g transform="matrix(3.8118 0 0 3.8118 -268.01 -184.56)">
   <rect x="126.94" y="81.238" width="3.9057" height="9.9057" ry=".17074"/>
   <rect transform="rotate(90)" x="81.222" y="-137.67" width="2.3428" height="6.1378" ry=".1058"/>
   <rect transform="rotate(90)" x="88.821" y="-137.66" width="2.3428" height="6.1378" ry=".1058"/>
   <rect transform="rotate(90)" x="85.022" y="-137.67" width="2.3428" height="6.1378" ry=".1058"/>
  </g>
 </g>
</svg>
